# "unit" bitruncated cube. from one square face to the opposite square face is 1 unit distance.
# square faces face in direction of unit axes (one each for positive x, negative x positive y, negative y, the z's...)
# This version HAS NOT been triangulated and includes square and hexagonal faces.

g bCube

v 0 -0.5 0.25
v -0.25 -0.5 -0
v 0 -0.5 -0.25
v 0.25 -0.5 -0
v -0.5 -0.25 -0
v 0 -0.25 0.5
v -0.25 0 0.5
v -0.5 0 0.25
v -0.5 0 -0.25
v -0.25 0 -0.5
v 0 -0.25 -0.5
v -0.5 0.25 -0
v -0.25 0.5 -0
v 0 0.5 -0.25
v 0 0.25 -0.5
v 0 0.25 0.5
v 0 0.5 0.25
v 0.25 0 0.5
v 0.5 0 0.25
v 0.5 -0.25 -0
v 0.5 0.25 -0
v 0.25 0.5 -0
v 0.5 0 -0.25
v 0.25 0 -0.5

vn 0 -1 -0
vn -0.57735 -0.57735 0.57735
vn -0.57735 -0.57735 -0.57735
vn -0.57735 0.57735 -0.57735
vn -1 0 -0
vn -0.57735 0.57735 0.57735
vn 0 0 1
vn 0.57735 -0.57735 0.57735
vn 0.57735 0.57735 0.57735
vn 1 0 -0
vn 0.57735 -0.57735 -0.57735
vn 0.57735 0.57735 -0.57735
vn 0 0 -1
vn 0 1 -0

f 1//1 2//1 3//1 4//1
f 5//2 2//2 1//2 6//2 7//2 8//2
f 9//3 10//3 11//3 3//3 2//3 5//3
f 10//4 9//4 12//4 13//4 14//4 15//4
f 12//5 9//5 5//5 8//5
f 13//6 12//6 8//6 7//6 16//6 17//6
f 7//7 6//7 18//7 16//7
f 19//8 18//8 6//8 1//8 4//8 20//8
f 18//9 19//9 21//9 22//9 17//9 16//9
f 21//10 19//10 20//10 23//10
f 24//11 23//11 20//11 4//11 3//11 11//11
f 23//12 24//12 15//12 14//12 22//12 21//12
f 24//13 11//13 10//13 15//13
f 22//14 14//14 13//14 17//14
